<svg width="34" height="34" viewBox="0 0 34 34" fill="none" xmlns="http://www.w3.org/2000/svg">
<g clip-path="url(#clip0_1_1028)">
<path d="M16.9092 2.37598C16.9451 2.29905 17.0549 2.29905 17.0908 2.37598L21.1133 10.9912C21.2687 11.324 21.5803 11.5575 21.9434 11.6133L30.9912 13.0029C31.0715 13.0153 31.1044 13.1136 31.0479 13.1719L24.46 19.96C24.2177 20.2095 24.1074 20.559 24.1631 20.9023L25.7129 30.4512C25.7263 30.5336 25.6385 30.5953 25.5654 30.5547L17.5342 26.0918C17.202 25.9073 16.798 25.9073 16.4658 26.0918L8.43457 30.5547C8.36155 30.5953 8.27373 30.5336 8.28711 30.4512L9.83691 20.9023C9.89262 20.559 9.78228 20.2095 9.54004 19.96L2.95215 13.1719C2.89557 13.1136 2.92849 13.0153 3.00879 13.0029L12.0566 11.6133C12.4197 11.5575 12.7313 11.324 12.8867 10.9912L16.9092 2.37598Z" fill="black" fill-opacity="0.2" stroke="white"/>
</g>
<defs>
<clipPath id="clip0_1_1028">
<rect width="34" height="34" fill="white"/>
</clipPath>
</defs>
</svg>
