<svg width="20" height="14" viewBox="0 0 20 14" fill="none" xmlns="http://www.w3.org/2000/svg">
<path d="M19.5829 2.0933C19.4696 1.68932 19.249 1.32359 18.9445 1.03497C18.6314 0.737469 18.2477 0.524662 17.8295 0.416632C16.2645 0.00413232 9.99454 0.00413241 9.99454 0.00413241C7.38065 -0.0256071 4.7674 0.105194 2.16954 0.395799C1.75136 0.51181 1.36834 0.729371 1.05454 1.02913C0.746204 1.3258 0.522871 1.69163 0.406204 2.09247C0.125949 3.60225 -0.0102189 5.13525 -0.000462243 6.6708C-0.0104622 8.20497 0.125371 9.73746 0.406204 11.2491C0.520371 11.6483 0.742871 12.0125 1.05204 12.3066C1.3612 12.6008 1.7462 12.8133 2.16954 12.9258C3.75537 13.3375 9.99454 13.3375 9.99454 13.3375C12.6118 13.3672 15.2283 13.2364 17.8295 12.9458C18.2477 12.8378 18.6314 12.625 18.9445 12.3275C19.2489 12.0389 19.4693 11.6731 19.582 11.2691C19.8696 9.75993 20.0094 8.22629 19.9995 6.68997C20.0212 5.14714 19.8815 3.60627 19.5829 2.09247V2.0933ZM8.0012 9.52413V3.8183L13.2179 6.67163L8.0012 9.52413Z" fill="white"/>
</svg>
